<mxfile host="Electron" agent="Mozilla/5.0 (X11; Linux x86_64) AppleWebKit/537.36 (KHTML, like Gecko) draw.io/24.7.8 Chrome/128.0.6613.120 Electron/32.1.0 Safari/537.36" border="50" scale="3" compressed="false" locked="false" version="24.7.8">
  <diagram name="Blank" id="YmL12bMKpDGza6XwsDPr">
    <mxGraphModel dx="3980" dy="2345" grid="0" gridSize="10" guides="1" tooltips="1" connect="1" arrows="1" fold="1" page="0" pageScale="1" pageWidth="827" pageHeight="1169" background="none" math="1" shadow="0">
      <root>
        <mxCell id="X5NqExCQtvZxIxQ7pmgY-0" />
        <mxCell id="1" parent="X5NqExCQtvZxIxQ7pmgY-0" />
        <mxCell id="YqHe1SWwSHMlwZ-YQh3x-10" style="edgeStyle=orthogonalEdgeStyle;shape=connector;curved=1;rounded=0;orthogonalLoop=1;jettySize=auto;html=1;entryX=1;entryY=0.5;entryDx=0;entryDy=0;strokeColor=default;align=center;verticalAlign=middle;fontFamily=Helvetica;fontSize=11;fontColor=default;labelBackgroundColor=default;endArrow=none;endFill=0;" edge="1" parent="1" source="vDTBKTOLJICSkcZuTxSC-27" target="YqHe1SWwSHMlwZ-YQh3x-3">
          <mxGeometry relative="1" as="geometry" />
        </mxCell>
        <mxCell id="YqHe1SWwSHMlwZ-YQh3x-11" style="edgeStyle=orthogonalEdgeStyle;shape=connector;curved=1;rounded=0;orthogonalLoop=1;jettySize=auto;html=1;entryX=1;entryY=0.5;entryDx=0;entryDy=0;strokeColor=default;align=center;verticalAlign=middle;fontFamily=Helvetica;fontSize=11;fontColor=default;labelBackgroundColor=default;endArrow=none;endFill=0;" edge="1" parent="1" source="vDTBKTOLJICSkcZuTxSC-27" target="YqHe1SWwSHMlwZ-YQh3x-5">
          <mxGeometry relative="1" as="geometry" />
        </mxCell>
        <mxCell id="YqHe1SWwSHMlwZ-YQh3x-12" style="edgeStyle=orthogonalEdgeStyle;shape=connector;curved=1;rounded=0;orthogonalLoop=1;jettySize=auto;html=1;entryX=1;entryY=0.5;entryDx=0;entryDy=0;strokeColor=default;align=center;verticalAlign=middle;fontFamily=Helvetica;fontSize=11;fontColor=default;labelBackgroundColor=default;endArrow=none;endFill=0;" edge="1" parent="1" source="vDTBKTOLJICSkcZuTxSC-27" target="YqHe1SWwSHMlwZ-YQh3x-6">
          <mxGeometry relative="1" as="geometry" />
        </mxCell>
        <mxCell id="YqHe1SWwSHMlwZ-YQh3x-73" style="edgeStyle=orthogonalEdgeStyle;shape=connector;curved=1;rounded=0;orthogonalLoop=1;jettySize=auto;html=1;entryX=1;entryY=0.5;entryDx=0;entryDy=0;strokeColor=default;align=center;verticalAlign=middle;fontFamily=Helvetica;fontSize=11;fontColor=default;labelBackgroundColor=default;endArrow=none;endFill=0;" edge="1" parent="1" source="vDTBKTOLJICSkcZuTxSC-27" target="YqHe1SWwSHMlwZ-YQh3x-21">
          <mxGeometry relative="1" as="geometry" />
        </mxCell>
        <mxCell id="vDTBKTOLJICSkcZuTxSC-27" value="Публичные&amp;nbsp;&lt;div style=&quot;font-size: 20px;&quot;&gt;данные&lt;/div&gt;" style="ellipse;whiteSpace=wrap;html=1;fontSize=20;textShadow=1;strokeColor=#0000CC;" parent="1" vertex="1">
          <mxGeometry x="116" y="-320" width="180" height="113" as="geometry" />
        </mxCell>
        <mxCell id="YqHe1SWwSHMlwZ-YQh3x-49" style="edgeStyle=orthogonalEdgeStyle;shape=connector;curved=1;rounded=0;orthogonalLoop=1;jettySize=auto;html=1;entryX=0;entryY=0.5;entryDx=0;entryDy=0;strokeColor=default;align=center;verticalAlign=middle;fontFamily=Helvetica;fontSize=11;fontColor=default;labelBackgroundColor=default;endArrow=none;endFill=0;" edge="1" parent="1" source="vDTBKTOLJICSkcZuTxSC-29" target="YqHe1SWwSHMlwZ-YQh3x-38">
          <mxGeometry relative="1" as="geometry" />
        </mxCell>
        <mxCell id="YqHe1SWwSHMlwZ-YQh3x-50" style="edgeStyle=orthogonalEdgeStyle;shape=connector;curved=1;rounded=0;orthogonalLoop=1;jettySize=auto;html=1;entryX=0;entryY=0.5;entryDx=0;entryDy=0;strokeColor=default;align=center;verticalAlign=middle;fontFamily=Helvetica;fontSize=11;fontColor=default;labelBackgroundColor=default;endArrow=none;endFill=0;" edge="1" parent="1" source="vDTBKTOLJICSkcZuTxSC-29" target="YqHe1SWwSHMlwZ-YQh3x-39">
          <mxGeometry relative="1" as="geometry" />
        </mxCell>
        <mxCell id="YqHe1SWwSHMlwZ-YQh3x-51" style="edgeStyle=orthogonalEdgeStyle;shape=connector;curved=1;rounded=0;orthogonalLoop=1;jettySize=auto;html=1;entryX=0;entryY=0.5;entryDx=0;entryDy=0;strokeColor=default;align=center;verticalAlign=middle;fontFamily=Helvetica;fontSize=11;fontColor=default;labelBackgroundColor=default;endArrow=none;endFill=0;" edge="1" parent="1" source="vDTBKTOLJICSkcZuTxSC-29" target="YqHe1SWwSHMlwZ-YQh3x-40">
          <mxGeometry relative="1" as="geometry" />
        </mxCell>
        <mxCell id="YqHe1SWwSHMlwZ-YQh3x-52" style="edgeStyle=orthogonalEdgeStyle;shape=connector;curved=1;rounded=0;orthogonalLoop=1;jettySize=auto;html=1;entryX=0;entryY=0.5;entryDx=0;entryDy=0;strokeColor=default;align=center;verticalAlign=middle;fontFamily=Helvetica;fontSize=11;fontColor=default;labelBackgroundColor=default;endArrow=none;endFill=0;" edge="1" parent="1" source="vDTBKTOLJICSkcZuTxSC-29" target="YqHe1SWwSHMlwZ-YQh3x-41">
          <mxGeometry relative="1" as="geometry" />
        </mxCell>
        <mxCell id="YqHe1SWwSHMlwZ-YQh3x-53" style="edgeStyle=orthogonalEdgeStyle;shape=connector;curved=1;rounded=0;orthogonalLoop=1;jettySize=auto;html=1;entryX=0;entryY=0.5;entryDx=0;entryDy=0;strokeColor=default;align=center;verticalAlign=middle;fontFamily=Helvetica;fontSize=11;fontColor=default;labelBackgroundColor=default;endArrow=none;endFill=0;" edge="1" parent="1" source="vDTBKTOLJICSkcZuTxSC-29" target="YqHe1SWwSHMlwZ-YQh3x-42">
          <mxGeometry relative="1" as="geometry" />
        </mxCell>
        <mxCell id="YqHe1SWwSHMlwZ-YQh3x-54" style="edgeStyle=orthogonalEdgeStyle;shape=connector;curved=1;rounded=0;orthogonalLoop=1;jettySize=auto;html=1;entryX=0;entryY=0.5;entryDx=0;entryDy=0;strokeColor=default;align=center;verticalAlign=middle;fontFamily=Helvetica;fontSize=11;fontColor=default;labelBackgroundColor=default;endArrow=none;endFill=0;" edge="1" parent="1" source="vDTBKTOLJICSkcZuTxSC-29" target="YqHe1SWwSHMlwZ-YQh3x-43">
          <mxGeometry relative="1" as="geometry" />
        </mxCell>
        <mxCell id="YqHe1SWwSHMlwZ-YQh3x-55" style="edgeStyle=orthogonalEdgeStyle;shape=connector;curved=1;rounded=0;orthogonalLoop=1;jettySize=auto;html=1;entryX=0;entryY=0.5;entryDx=0;entryDy=0;strokeColor=default;align=center;verticalAlign=middle;fontFamily=Helvetica;fontSize=11;fontColor=default;labelBackgroundColor=default;endArrow=none;endFill=0;" edge="1" parent="1" source="vDTBKTOLJICSkcZuTxSC-29" target="YqHe1SWwSHMlwZ-YQh3x-44">
          <mxGeometry relative="1" as="geometry" />
        </mxCell>
        <mxCell id="YqHe1SWwSHMlwZ-YQh3x-56" style="edgeStyle=orthogonalEdgeStyle;shape=connector;curved=1;rounded=0;orthogonalLoop=1;jettySize=auto;html=1;entryX=0;entryY=0.5;entryDx=0;entryDy=0;strokeColor=default;align=center;verticalAlign=middle;fontFamily=Helvetica;fontSize=11;fontColor=default;labelBackgroundColor=default;endArrow=none;endFill=0;" edge="1" parent="1" source="vDTBKTOLJICSkcZuTxSC-29" target="YqHe1SWwSHMlwZ-YQh3x-47">
          <mxGeometry relative="1" as="geometry" />
        </mxCell>
        <mxCell id="YqHe1SWwSHMlwZ-YQh3x-57" style="edgeStyle=orthogonalEdgeStyle;shape=connector;curved=1;rounded=0;orthogonalLoop=1;jettySize=auto;html=1;entryX=0;entryY=0.5;entryDx=0;entryDy=0;strokeColor=default;align=center;verticalAlign=middle;fontFamily=Helvetica;fontSize=11;fontColor=default;labelBackgroundColor=default;endArrow=none;endFill=0;" edge="1" parent="1" source="vDTBKTOLJICSkcZuTxSC-29" target="YqHe1SWwSHMlwZ-YQh3x-48">
          <mxGeometry relative="1" as="geometry" />
        </mxCell>
        <mxCell id="YqHe1SWwSHMlwZ-YQh3x-62" style="edgeStyle=orthogonalEdgeStyle;shape=connector;curved=1;rounded=0;orthogonalLoop=1;jettySize=auto;html=1;entryX=0;entryY=0.5;entryDx=0;entryDy=0;strokeColor=default;align=center;verticalAlign=middle;fontFamily=Helvetica;fontSize=11;fontColor=default;labelBackgroundColor=default;endArrow=none;endFill=0;" edge="1" parent="1" source="vDTBKTOLJICSkcZuTxSC-29" target="YqHe1SWwSHMlwZ-YQh3x-61">
          <mxGeometry relative="1" as="geometry" />
        </mxCell>
        <mxCell id="vDTBKTOLJICSkcZuTxSC-29" value="Конфиденциальные&amp;nbsp;&lt;div style=&quot;font-size: 20px;&quot;&gt;данные&lt;/div&gt;" style="ellipse;whiteSpace=wrap;html=1;fontSize=20;textShadow=1;strokeColor=#0000CC;" parent="1" vertex="1">
          <mxGeometry x="398" y="82" width="219" height="136" as="geometry" />
        </mxCell>
        <mxCell id="YqHe1SWwSHMlwZ-YQh3x-64" style="edgeStyle=orthogonalEdgeStyle;shape=connector;curved=1;rounded=0;orthogonalLoop=1;jettySize=auto;html=1;entryX=0;entryY=0.5;entryDx=0;entryDy=0;strokeColor=default;align=center;verticalAlign=middle;fontFamily=Helvetica;fontSize=11;fontColor=default;labelBackgroundColor=default;endArrow=none;endFill=0;" edge="1" parent="1" source="vDTBKTOLJICSkcZuTxSC-31" target="YqHe1SWwSHMlwZ-YQh3x-58">
          <mxGeometry relative="1" as="geometry" />
        </mxCell>
        <mxCell id="YqHe1SWwSHMlwZ-YQh3x-65" style="edgeStyle=orthogonalEdgeStyle;shape=connector;curved=1;rounded=0;orthogonalLoop=1;jettySize=auto;html=1;entryX=0;entryY=0.5;entryDx=0;entryDy=0;strokeColor=default;align=center;verticalAlign=middle;fontFamily=Helvetica;fontSize=11;fontColor=default;labelBackgroundColor=default;endArrow=none;endFill=0;" edge="1" parent="1" source="vDTBKTOLJICSkcZuTxSC-31" target="YqHe1SWwSHMlwZ-YQh3x-60">
          <mxGeometry relative="1" as="geometry" />
        </mxCell>
        <mxCell id="YqHe1SWwSHMlwZ-YQh3x-66" style="edgeStyle=orthogonalEdgeStyle;shape=connector;curved=1;rounded=0;orthogonalLoop=1;jettySize=auto;html=1;entryX=0;entryY=0.5;entryDx=0;entryDy=0;strokeColor=default;align=center;verticalAlign=middle;fontFamily=Helvetica;fontSize=11;fontColor=default;labelBackgroundColor=default;endArrow=none;endFill=0;" edge="1" parent="1" source="vDTBKTOLJICSkcZuTxSC-31" target="YqHe1SWwSHMlwZ-YQh3x-63">
          <mxGeometry relative="1" as="geometry" />
        </mxCell>
        <mxCell id="vDTBKTOLJICSkcZuTxSC-31" value="Секретные&amp;nbsp;&lt;div style=&quot;font-size: 20px;&quot;&gt;данные&lt;/div&gt;" style="ellipse;whiteSpace=wrap;html=1;fontSize=20;textShadow=1;strokeColor=#0000CC;" parent="1" vertex="1">
          <mxGeometry x="456" y="-207" width="199" height="128.5" as="geometry" />
        </mxCell>
        <mxCell id="YqHe1SWwSHMlwZ-YQh3x-27" style="edgeStyle=orthogonalEdgeStyle;shape=connector;curved=1;rounded=0;orthogonalLoop=1;jettySize=auto;html=1;entryX=1;entryY=0.5;entryDx=0;entryDy=0;strokeColor=default;align=center;verticalAlign=middle;fontFamily=Helvetica;fontSize=11;fontColor=default;labelBackgroundColor=default;endArrow=none;endFill=0;" edge="1" parent="1" source="vDTBKTOLJICSkcZuTxSC-33" target="YqHe1SWwSHMlwZ-YQh3x-20">
          <mxGeometry relative="1" as="geometry" />
        </mxCell>
        <mxCell id="YqHe1SWwSHMlwZ-YQh3x-29" style="edgeStyle=orthogonalEdgeStyle;shape=connector;curved=1;rounded=0;orthogonalLoop=1;jettySize=auto;html=1;entryX=1;entryY=0.5;entryDx=0;entryDy=0;strokeColor=default;align=center;verticalAlign=middle;fontFamily=Helvetica;fontSize=11;fontColor=default;labelBackgroundColor=default;endArrow=none;endFill=0;" edge="1" parent="1" source="vDTBKTOLJICSkcZuTxSC-33" target="YqHe1SWwSHMlwZ-YQh3x-22">
          <mxGeometry relative="1" as="geometry" />
        </mxCell>
        <mxCell id="YqHe1SWwSHMlwZ-YQh3x-30" style="edgeStyle=orthogonalEdgeStyle;shape=connector;curved=1;rounded=0;orthogonalLoop=1;jettySize=auto;html=1;entryX=1;entryY=0.5;entryDx=0;entryDy=0;strokeColor=default;align=center;verticalAlign=middle;fontFamily=Helvetica;fontSize=11;fontColor=default;labelBackgroundColor=default;endArrow=none;endFill=0;" edge="1" parent="1" source="vDTBKTOLJICSkcZuTxSC-33" target="YqHe1SWwSHMlwZ-YQh3x-23">
          <mxGeometry relative="1" as="geometry" />
        </mxCell>
        <mxCell id="YqHe1SWwSHMlwZ-YQh3x-31" style="edgeStyle=orthogonalEdgeStyle;shape=connector;curved=1;rounded=0;orthogonalLoop=1;jettySize=auto;html=1;entryX=1;entryY=0.5;entryDx=0;entryDy=0;strokeColor=default;align=center;verticalAlign=middle;fontFamily=Helvetica;fontSize=11;fontColor=default;labelBackgroundColor=default;endArrow=none;endFill=0;" edge="1" parent="1" source="vDTBKTOLJICSkcZuTxSC-33" target="YqHe1SWwSHMlwZ-YQh3x-24">
          <mxGeometry relative="1" as="geometry" />
        </mxCell>
        <mxCell id="YqHe1SWwSHMlwZ-YQh3x-32" style="edgeStyle=orthogonalEdgeStyle;shape=connector;curved=1;rounded=0;orthogonalLoop=1;jettySize=auto;html=1;entryX=1;entryY=0.5;entryDx=0;entryDy=0;strokeColor=default;align=center;verticalAlign=middle;fontFamily=Helvetica;fontSize=11;fontColor=default;labelBackgroundColor=default;endArrow=none;endFill=0;" edge="1" parent="1" source="vDTBKTOLJICSkcZuTxSC-33" target="YqHe1SWwSHMlwZ-YQh3x-25">
          <mxGeometry relative="1" as="geometry" />
        </mxCell>
        <mxCell id="YqHe1SWwSHMlwZ-YQh3x-46" style="edgeStyle=orthogonalEdgeStyle;shape=connector;curved=1;rounded=0;orthogonalLoop=1;jettySize=auto;html=1;entryX=1;entryY=0.5;entryDx=0;entryDy=0;strokeColor=default;align=center;verticalAlign=middle;fontFamily=Helvetica;fontSize=11;fontColor=default;labelBackgroundColor=default;endArrow=none;endFill=0;" edge="1" parent="1" source="vDTBKTOLJICSkcZuTxSC-33" target="YqHe1SWwSHMlwZ-YQh3x-45">
          <mxGeometry relative="1" as="geometry" />
        </mxCell>
        <mxCell id="vDTBKTOLJICSkcZuTxSC-33" value="Внутренние&lt;div style=&quot;font-size: 20px;&quot;&gt;данные&lt;/div&gt;" style="ellipse;whiteSpace=wrap;html=1;fontSize=20;textShadow=1;strokeColor=#0000CC;" parent="1" vertex="1">
          <mxGeometry x="116" y="171" width="169" height="118" as="geometry" />
        </mxCell>
        <mxCell id="YqHe1SWwSHMlwZ-YQh3x-79" style="edgeStyle=orthogonalEdgeStyle;shape=connector;curved=1;rounded=0;orthogonalLoop=1;jettySize=auto;html=1;entryX=1;entryY=0.5;entryDx=0;entryDy=0;strokeColor=default;align=center;verticalAlign=middle;fontFamily=Helvetica;fontSize=13;fontColor=default;labelBackgroundColor=default;endArrow=none;endFill=0;" edge="1" parent="1" source="YqHe1SWwSHMlwZ-YQh3x-3" target="YqHe1SWwSHMlwZ-YQh3x-78">
          <mxGeometry relative="1" as="geometry" />
        </mxCell>
        <mxCell id="YqHe1SWwSHMlwZ-YQh3x-3" value="&lt;ul style=&quot;font-size: 13px;&quot;&gt;&lt;li style=&quot;font-size: 13px;&quot;&gt;Реклама/ Рекламные буклеты&lt;/li&gt;&lt;/ul&gt;" style="rounded=1;whiteSpace=wrap;html=1;fontFamily=Helvetica;fontSize=13;fontColor=#000000;labelBackgroundColor=default;align=left;strokeColor=#0000CC;" vertex="1" parent="1">
          <mxGeometry x="-243" y="-241.5" width="254" height="42" as="geometry" />
        </mxCell>
        <mxCell id="YqHe1SWwSHMlwZ-YQh3x-80" style="edgeStyle=orthogonalEdgeStyle;shape=connector;curved=1;rounded=0;orthogonalLoop=1;jettySize=auto;html=1;entryX=1;entryY=0.5;entryDx=0;entryDy=0;strokeColor=default;align=center;verticalAlign=middle;fontFamily=Helvetica;fontSize=13;fontColor=default;labelBackgroundColor=default;endArrow=none;endFill=0;" edge="1" parent="1" source="YqHe1SWwSHMlwZ-YQh3x-5" target="YqHe1SWwSHMlwZ-YQh3x-78">
          <mxGeometry relative="1" as="geometry" />
        </mxCell>
        <mxCell id="YqHe1SWwSHMlwZ-YQh3x-5" value="&lt;ul style=&quot;font-size: 13px;&quot;&gt;&lt;li style=&quot;font-size: 13px;&quot;&gt;Публичные данные организации&lt;/li&gt;&lt;/ul&gt;" style="rounded=1;whiteSpace=wrap;html=1;fontFamily=Helvetica;fontSize=13;fontColor=#000000;labelBackgroundColor=default;align=left;strokeColor=#0000CC;" vertex="1" parent="1">
          <mxGeometry x="-240" y="-177.87" width="253" height="42" as="geometry" />
        </mxCell>
        <mxCell id="YqHe1SWwSHMlwZ-YQh3x-81" style="edgeStyle=orthogonalEdgeStyle;shape=connector;curved=1;rounded=0;orthogonalLoop=1;jettySize=auto;html=1;entryX=1;entryY=0.5;entryDx=0;entryDy=0;strokeColor=default;align=center;verticalAlign=middle;fontFamily=Helvetica;fontSize=13;fontColor=default;labelBackgroundColor=default;endArrow=none;endFill=0;" edge="1" parent="1" source="YqHe1SWwSHMlwZ-YQh3x-6" target="YqHe1SWwSHMlwZ-YQh3x-78">
          <mxGeometry relative="1" as="geometry" />
        </mxCell>
        <mxCell id="YqHe1SWwSHMlwZ-YQh3x-6" value="&lt;ul style=&quot;font-size: 13px;&quot;&gt;&lt;li style=&quot;font-size: 13px;&quot;&gt;Публичные данные о структуре&lt;/li&gt;&lt;/ul&gt;" style="rounded=1;whiteSpace=wrap;html=1;fontFamily=Helvetica;fontSize=13;fontColor=#000000;labelBackgroundColor=default;align=left;strokeColor=#0000CC;" vertex="1" parent="1">
          <mxGeometry x="-240" y="-117" width="249" height="42" as="geometry" />
        </mxCell>
        <mxCell id="YqHe1SWwSHMlwZ-YQh3x-84" style="edgeStyle=orthogonalEdgeStyle;shape=connector;curved=1;rounded=0;orthogonalLoop=1;jettySize=auto;html=1;entryX=1;entryY=0.5;entryDx=0;entryDy=0;strokeColor=default;align=center;verticalAlign=middle;fontFamily=Helvetica;fontSize=13;fontColor=default;labelBackgroundColor=default;endArrow=none;endFill=0;" edge="1" parent="1" source="YqHe1SWwSHMlwZ-YQh3x-20" target="YqHe1SWwSHMlwZ-YQh3x-77">
          <mxGeometry relative="1" as="geometry" />
        </mxCell>
        <mxCell id="YqHe1SWwSHMlwZ-YQh3x-87" style="edgeStyle=orthogonalEdgeStyle;shape=connector;curved=1;rounded=0;orthogonalLoop=1;jettySize=auto;html=1;entryX=1;entryY=0.5;entryDx=0;entryDy=0;strokeColor=default;align=center;verticalAlign=middle;fontFamily=Helvetica;fontSize=13;fontColor=default;labelBackgroundColor=default;endArrow=none;endFill=0;" edge="1" parent="1" source="YqHe1SWwSHMlwZ-YQh3x-20" target="YqHe1SWwSHMlwZ-YQh3x-86">
          <mxGeometry relative="1" as="geometry" />
        </mxCell>
        <mxCell id="YqHe1SWwSHMlwZ-YQh3x-20" value="&lt;ul style=&quot;font-size: 13px;&quot;&gt;&lt;li style=&quot;font-size: 13px;&quot;&gt;Инструкции для сотрудников&lt;/li&gt;&lt;/ul&gt;" style="rounded=1;whiteSpace=wrap;html=1;fontFamily=Helvetica;fontSize=13;fontColor=#000000;labelBackgroundColor=default;align=left;strokeColor=#0000CC;" vertex="1" parent="1">
          <mxGeometry x="-240" y="97" width="250" height="42" as="geometry" />
        </mxCell>
        <mxCell id="YqHe1SWwSHMlwZ-YQh3x-82" style="edgeStyle=orthogonalEdgeStyle;shape=connector;curved=1;rounded=0;orthogonalLoop=1;jettySize=auto;html=1;entryX=1;entryY=0.5;entryDx=0;entryDy=0;strokeColor=default;align=center;verticalAlign=middle;fontFamily=Helvetica;fontSize=13;fontColor=default;labelBackgroundColor=default;endArrow=none;endFill=0;" edge="1" parent="1" source="YqHe1SWwSHMlwZ-YQh3x-21" target="YqHe1SWwSHMlwZ-YQh3x-78">
          <mxGeometry relative="1" as="geometry" />
        </mxCell>
        <mxCell id="YqHe1SWwSHMlwZ-YQh3x-21" value="&lt;ul style=&quot;font-size: 13px;&quot;&gt;&lt;li style=&quot;font-size: 13px;&quot;&gt;Корпоративные книги&lt;/li&gt;&lt;/ul&gt;" style="rounded=1;whiteSpace=wrap;html=1;fontFamily=Helvetica;fontSize=13;fontColor=#000000;labelBackgroundColor=default;align=left;strokeColor=#0000CC;" vertex="1" parent="1">
          <mxGeometry x="-238.5" y="-54.87" width="250" height="42" as="geometry" />
        </mxCell>
        <mxCell id="YqHe1SWwSHMlwZ-YQh3x-90" style="edgeStyle=orthogonalEdgeStyle;shape=connector;curved=1;rounded=0;orthogonalLoop=1;jettySize=auto;html=1;entryX=1;entryY=0.5;entryDx=0;entryDy=0;strokeColor=default;align=center;verticalAlign=middle;fontFamily=Helvetica;fontSize=13;fontColor=default;labelBackgroundColor=default;endArrow=none;endFill=0;" edge="1" parent="1" source="YqHe1SWwSHMlwZ-YQh3x-22" target="YqHe1SWwSHMlwZ-YQh3x-77">
          <mxGeometry relative="1" as="geometry" />
        </mxCell>
        <mxCell id="YqHe1SWwSHMlwZ-YQh3x-107" style="edgeStyle=orthogonalEdgeStyle;shape=connector;curved=1;rounded=0;orthogonalLoop=1;jettySize=auto;html=1;entryX=1;entryY=0.5;entryDx=0;entryDy=0;strokeColor=default;align=center;verticalAlign=middle;fontFamily=Helvetica;fontSize=13;fontColor=default;labelBackgroundColor=default;endArrow=none;endFill=0;" edge="1" parent="1" source="YqHe1SWwSHMlwZ-YQh3x-22" target="YqHe1SWwSHMlwZ-YQh3x-104">
          <mxGeometry relative="1" as="geometry" />
        </mxCell>
        <mxCell id="YqHe1SWwSHMlwZ-YQh3x-22" value="&lt;ul style=&quot;font-size: 13px;&quot;&gt;&lt;li style=&quot;font-size: 13px;&quot;&gt;Отчеты о функционировании системы&lt;/li&gt;&lt;/ul&gt;" style="rounded=1;whiteSpace=wrap;html=1;fontFamily=Helvetica;fontSize=13;fontColor=#000000;labelBackgroundColor=default;align=left;strokeColor=#0000CC;" vertex="1" parent="1">
          <mxGeometry x="-244" y="163" width="250" height="60" as="geometry" />
        </mxCell>
        <mxCell id="YqHe1SWwSHMlwZ-YQh3x-189" style="edgeStyle=orthogonalEdgeStyle;shape=connector;curved=1;rounded=0;orthogonalLoop=1;jettySize=auto;html=1;entryX=1;entryY=0.5;entryDx=0;entryDy=0;strokeColor=default;align=center;verticalAlign=middle;fontFamily=Helvetica;fontSize=11;fontColor=default;labelBackgroundColor=default;endArrow=none;endFill=0;" edge="1" parent="1" source="YqHe1SWwSHMlwZ-YQh3x-23" target="YqHe1SWwSHMlwZ-YQh3x-104">
          <mxGeometry relative="1" as="geometry" />
        </mxCell>
        <mxCell id="YqHe1SWwSHMlwZ-YQh3x-23" value="&lt;ul style=&quot;font-size: 13px;&quot;&gt;&lt;li style=&quot;font-size: 13px;&quot;&gt;Данные автоматики умного дома&lt;/li&gt;&lt;/ul&gt;" style="rounded=1;whiteSpace=wrap;html=1;fontFamily=Helvetica;fontSize=13;fontColor=#000000;labelBackgroundColor=default;align=left;strokeColor=#0000CC;" vertex="1" parent="1">
          <mxGeometry x="-238" y="254" width="250" height="42" as="geometry" />
        </mxCell>
        <mxCell id="YqHe1SWwSHMlwZ-YQh3x-100" style="edgeStyle=orthogonalEdgeStyle;shape=connector;curved=1;rounded=0;orthogonalLoop=1;jettySize=auto;html=1;entryX=1;entryY=0.5;entryDx=0;entryDy=0;strokeColor=default;align=center;verticalAlign=middle;fontFamily=Helvetica;fontSize=13;fontColor=default;labelBackgroundColor=default;endArrow=none;endFill=0;" edge="1" parent="1" source="YqHe1SWwSHMlwZ-YQh3x-24" target="YqHe1SWwSHMlwZ-YQh3x-77">
          <mxGeometry relative="1" as="geometry" />
        </mxCell>
        <mxCell id="YqHe1SWwSHMlwZ-YQh3x-191" style="edgeStyle=orthogonalEdgeStyle;shape=connector;curved=1;rounded=0;orthogonalLoop=1;jettySize=auto;html=1;entryX=1;entryY=0.5;entryDx=0;entryDy=0;strokeColor=default;align=center;verticalAlign=middle;fontFamily=Helvetica;fontSize=11;fontColor=default;labelBackgroundColor=default;endArrow=none;endFill=0;" edge="1" parent="1" source="YqHe1SWwSHMlwZ-YQh3x-24" target="YqHe1SWwSHMlwZ-YQh3x-86">
          <mxGeometry relative="1" as="geometry" />
        </mxCell>
        <mxCell id="YqHe1SWwSHMlwZ-YQh3x-24" value="&lt;ul style=&quot;font-size: 13px;&quot;&gt;&lt;li style=&quot;font-size: 13px;&quot;&gt;Информация от управяющих компаний&lt;/li&gt;&lt;/ul&gt;" style="rounded=1;whiteSpace=wrap;html=1;fontFamily=Helvetica;fontSize=13;fontColor=#000000;labelBackgroundColor=default;align=left;strokeColor=#0000CC;" vertex="1" parent="1">
          <mxGeometry x="-241" y="318" width="250" height="60" as="geometry" />
        </mxCell>
        <mxCell id="YqHe1SWwSHMlwZ-YQh3x-93" style="edgeStyle=orthogonalEdgeStyle;shape=connector;curved=1;rounded=0;orthogonalLoop=1;jettySize=auto;html=1;entryX=1;entryY=0.5;entryDx=0;entryDy=0;strokeColor=default;align=center;verticalAlign=middle;fontFamily=Helvetica;fontSize=13;fontColor=default;labelBackgroundColor=default;endArrow=none;endFill=0;" edge="1" parent="1" source="YqHe1SWwSHMlwZ-YQh3x-25" target="YqHe1SWwSHMlwZ-YQh3x-77">
          <mxGeometry relative="1" as="geometry" />
        </mxCell>
        <mxCell id="YqHe1SWwSHMlwZ-YQh3x-105" style="edgeStyle=orthogonalEdgeStyle;shape=connector;curved=1;rounded=0;orthogonalLoop=1;jettySize=auto;html=1;entryX=1;entryY=0.5;entryDx=0;entryDy=0;strokeColor=default;align=center;verticalAlign=middle;fontFamily=Helvetica;fontSize=13;fontColor=default;labelBackgroundColor=default;endArrow=none;endFill=0;" edge="1" parent="1" source="YqHe1SWwSHMlwZ-YQh3x-25" target="YqHe1SWwSHMlwZ-YQh3x-104">
          <mxGeometry relative="1" as="geometry" />
        </mxCell>
        <mxCell id="YqHe1SWwSHMlwZ-YQh3x-25" value="&lt;ul style=&quot;font-size: 13px;&quot;&gt;&lt;li style=&quot;font-size: 13px;&quot;&gt;Информация об оргструктуре&lt;/li&gt;&lt;/ul&gt;" style="rounded=1;whiteSpace=wrap;html=1;fontFamily=Helvetica;fontSize=13;fontColor=#000000;labelBackgroundColor=default;align=left;strokeColor=#0000CC;" vertex="1" parent="1">
          <mxGeometry x="-239" y="412" width="250" height="42" as="geometry" />
        </mxCell>
        <mxCell id="YqHe1SWwSHMlwZ-YQh3x-119" style="edgeStyle=orthogonalEdgeStyle;shape=connector;curved=1;rounded=0;orthogonalLoop=1;jettySize=auto;html=1;entryX=0;entryY=0.5;entryDx=0;entryDy=0;strokeColor=default;align=center;verticalAlign=middle;fontFamily=Helvetica;fontSize=11;fontColor=default;labelBackgroundColor=default;endArrow=none;endFill=0;" edge="1" parent="1" source="YqHe1SWwSHMlwZ-YQh3x-38" target="YqHe1SWwSHMlwZ-YQh3x-114">
          <mxGeometry relative="1" as="geometry" />
        </mxCell>
        <mxCell id="YqHe1SWwSHMlwZ-YQh3x-120" style="edgeStyle=orthogonalEdgeStyle;shape=connector;curved=1;rounded=0;orthogonalLoop=1;jettySize=auto;html=1;entryX=0;entryY=0.5;entryDx=0;entryDy=0;strokeColor=default;align=center;verticalAlign=middle;fontFamily=Helvetica;fontSize=11;fontColor=default;labelBackgroundColor=default;endArrow=none;endFill=0;" edge="1" parent="1" source="YqHe1SWwSHMlwZ-YQh3x-38" target="YqHe1SWwSHMlwZ-YQh3x-116">
          <mxGeometry relative="1" as="geometry" />
        </mxCell>
        <mxCell id="YqHe1SWwSHMlwZ-YQh3x-121" style="edgeStyle=orthogonalEdgeStyle;shape=connector;curved=1;rounded=0;orthogonalLoop=1;jettySize=auto;html=1;entryX=0;entryY=0.5;entryDx=0;entryDy=0;strokeColor=default;align=center;verticalAlign=middle;fontFamily=Helvetica;fontSize=11;fontColor=default;labelBackgroundColor=default;endArrow=none;endFill=0;" edge="1" parent="1" source="YqHe1SWwSHMlwZ-YQh3x-38" target="YqHe1SWwSHMlwZ-YQh3x-115">
          <mxGeometry relative="1" as="geometry" />
        </mxCell>
        <mxCell id="YqHe1SWwSHMlwZ-YQh3x-38" value="&lt;ul style=&quot;font-size: 13px;&quot;&gt;&lt;li style=&quot;font-size: 13px;&quot;&gt;Персональные данные клиентов/ собственников&lt;/li&gt;&lt;/ul&gt;" style="rounded=1;whiteSpace=wrap;html=1;fontFamily=Helvetica;fontSize=13;fontColor=#000000;labelBackgroundColor=default;align=left;strokeColor=#0000CC;" vertex="1" parent="1">
          <mxGeometry x="730.25" y="-129" width="250" height="60" as="geometry" />
        </mxCell>
        <mxCell id="YqHe1SWwSHMlwZ-YQh3x-122" style="edgeStyle=orthogonalEdgeStyle;shape=connector;curved=1;rounded=0;orthogonalLoop=1;jettySize=auto;html=1;entryX=0;entryY=0.5;entryDx=0;entryDy=0;strokeColor=default;align=center;verticalAlign=middle;fontFamily=Helvetica;fontSize=11;fontColor=default;labelBackgroundColor=default;endArrow=none;endFill=0;" edge="1" parent="1" source="YqHe1SWwSHMlwZ-YQh3x-39" target="YqHe1SWwSHMlwZ-YQh3x-114">
          <mxGeometry relative="1" as="geometry" />
        </mxCell>
        <mxCell id="YqHe1SWwSHMlwZ-YQh3x-123" style="edgeStyle=orthogonalEdgeStyle;shape=connector;curved=1;rounded=0;orthogonalLoop=1;jettySize=auto;html=1;entryX=0;entryY=0.5;entryDx=0;entryDy=0;strokeColor=default;align=center;verticalAlign=middle;fontFamily=Helvetica;fontSize=11;fontColor=default;labelBackgroundColor=default;endArrow=none;endFill=0;" edge="1" parent="1" source="YqHe1SWwSHMlwZ-YQh3x-39" target="YqHe1SWwSHMlwZ-YQh3x-117">
          <mxGeometry relative="1" as="geometry" />
        </mxCell>
        <mxCell id="YqHe1SWwSHMlwZ-YQh3x-39" value="&lt;ul style=&quot;font-size: 13px;&quot;&gt;&lt;li style=&quot;font-size: 13px;&quot;&gt;Персональные данные &lt;br style=&quot;font-size: 13px;&quot;&gt;сотрудников&lt;/li&gt;&lt;/ul&gt;" style="rounded=1;whiteSpace=wrap;html=1;fontFamily=Helvetica;fontSize=13;fontColor=#000000;labelBackgroundColor=default;align=left;strokeColor=#0000CC;" vertex="1" parent="1">
          <mxGeometry x="730.5" y="-54" width="250" height="60" as="geometry" />
        </mxCell>
        <mxCell id="YqHe1SWwSHMlwZ-YQh3x-124" style="edgeStyle=orthogonalEdgeStyle;shape=connector;curved=1;rounded=0;orthogonalLoop=1;jettySize=auto;html=1;entryX=0;entryY=0.5;entryDx=0;entryDy=0;strokeColor=default;align=center;verticalAlign=middle;fontFamily=Helvetica;fontSize=11;fontColor=default;labelBackgroundColor=default;endArrow=none;endFill=0;" edge="1" parent="1" source="YqHe1SWwSHMlwZ-YQh3x-40" target="YqHe1SWwSHMlwZ-YQh3x-114">
          <mxGeometry relative="1" as="geometry" />
        </mxCell>
        <mxCell id="YqHe1SWwSHMlwZ-YQh3x-125" style="edgeStyle=orthogonalEdgeStyle;shape=connector;curved=1;rounded=0;orthogonalLoop=1;jettySize=auto;html=1;entryX=0;entryY=0.5;entryDx=0;entryDy=0;strokeColor=default;align=center;verticalAlign=middle;fontFamily=Helvetica;fontSize=11;fontColor=default;labelBackgroundColor=default;endArrow=none;endFill=0;" edge="1" parent="1" source="YqHe1SWwSHMlwZ-YQh3x-40" target="YqHe1SWwSHMlwZ-YQh3x-116">
          <mxGeometry relative="1" as="geometry" />
        </mxCell>
        <mxCell id="YqHe1SWwSHMlwZ-YQh3x-126" style="edgeStyle=orthogonalEdgeStyle;shape=connector;curved=1;rounded=0;orthogonalLoop=1;jettySize=auto;html=1;entryX=0;entryY=0.5;entryDx=0;entryDy=0;strokeColor=default;align=center;verticalAlign=middle;fontFamily=Helvetica;fontSize=11;fontColor=default;labelBackgroundColor=default;endArrow=none;endFill=0;" edge="1" parent="1" source="YqHe1SWwSHMlwZ-YQh3x-40" target="YqHe1SWwSHMlwZ-YQh3x-115">
          <mxGeometry relative="1" as="geometry" />
        </mxCell>
        <mxCell id="YqHe1SWwSHMlwZ-YQh3x-40" value="&lt;ul style=&quot;font-size: 13px;&quot;&gt;&lt;li style=&quot;font-size: 13px;&quot;&gt;Финансовые данные клиентов / собственников&lt;/li&gt;&lt;/ul&gt;" style="rounded=1;whiteSpace=wrap;html=1;fontFamily=Helvetica;fontSize=13;fontColor=#000000;labelBackgroundColor=default;align=left;strokeColor=#0000CC;" vertex="1" parent="1">
          <mxGeometry x="728.25" y="24" width="250" height="60" as="geometry" />
        </mxCell>
        <mxCell id="YqHe1SWwSHMlwZ-YQh3x-127" style="edgeStyle=orthogonalEdgeStyle;shape=connector;curved=1;rounded=0;orthogonalLoop=1;jettySize=auto;html=1;entryX=0;entryY=0.5;entryDx=0;entryDy=0;strokeColor=default;align=center;verticalAlign=middle;fontFamily=Helvetica;fontSize=11;fontColor=default;labelBackgroundColor=default;endArrow=none;endFill=0;" edge="1" parent="1" source="YqHe1SWwSHMlwZ-YQh3x-41" target="YqHe1SWwSHMlwZ-YQh3x-114">
          <mxGeometry relative="1" as="geometry" />
        </mxCell>
        <mxCell id="YqHe1SWwSHMlwZ-YQh3x-128" style="edgeStyle=orthogonalEdgeStyle;shape=connector;curved=1;rounded=0;orthogonalLoop=1;jettySize=auto;html=1;entryX=0;entryY=0.5;entryDx=0;entryDy=0;strokeColor=default;align=center;verticalAlign=middle;fontFamily=Helvetica;fontSize=11;fontColor=default;labelBackgroundColor=default;endArrow=none;endFill=0;" edge="1" parent="1" source="YqHe1SWwSHMlwZ-YQh3x-41" target="YqHe1SWwSHMlwZ-YQh3x-118">
          <mxGeometry relative="1" as="geometry" />
        </mxCell>
        <mxCell id="YqHe1SWwSHMlwZ-YQh3x-41" value="&lt;ul style=&quot;font-size: 13px;&quot;&gt;&lt;li style=&quot;font-size: 13px;&quot;&gt;Даннные об предстоящих акциях&lt;/li&gt;&lt;/ul&gt;" style="rounded=1;whiteSpace=wrap;html=1;fontFamily=Helvetica;fontSize=13;fontColor=#000000;labelBackgroundColor=default;align=left;strokeColor=#0000CC;" vertex="1" parent="1">
          <mxGeometry x="727.5" y="97" width="250" height="42" as="geometry" />
        </mxCell>
        <mxCell id="YqHe1SWwSHMlwZ-YQh3x-129" style="edgeStyle=orthogonalEdgeStyle;shape=connector;curved=1;rounded=0;orthogonalLoop=1;jettySize=auto;html=1;entryX=0;entryY=0.5;entryDx=0;entryDy=0;strokeColor=default;align=center;verticalAlign=middle;fontFamily=Helvetica;fontSize=11;fontColor=default;labelBackgroundColor=default;endArrow=none;endFill=0;" edge="1" parent="1" source="YqHe1SWwSHMlwZ-YQh3x-42" target="YqHe1SWwSHMlwZ-YQh3x-114">
          <mxGeometry relative="1" as="geometry" />
        </mxCell>
        <mxCell id="YqHe1SWwSHMlwZ-YQh3x-130" style="edgeStyle=orthogonalEdgeStyle;shape=connector;curved=1;rounded=0;orthogonalLoop=1;jettySize=auto;html=1;entryX=0;entryY=0.5;entryDx=0;entryDy=0;strokeColor=default;align=center;verticalAlign=middle;fontFamily=Helvetica;fontSize=11;fontColor=default;labelBackgroundColor=default;endArrow=none;endFill=0;" edge="1" parent="1" source="YqHe1SWwSHMlwZ-YQh3x-42" target="YqHe1SWwSHMlwZ-YQh3x-116">
          <mxGeometry relative="1" as="geometry" />
        </mxCell>
        <mxCell id="YqHe1SWwSHMlwZ-YQh3x-131" style="edgeStyle=orthogonalEdgeStyle;shape=connector;curved=1;rounded=0;orthogonalLoop=1;jettySize=auto;html=1;entryX=0;entryY=0.5;entryDx=0;entryDy=0;strokeColor=default;align=center;verticalAlign=middle;fontFamily=Helvetica;fontSize=11;fontColor=default;labelBackgroundColor=default;endArrow=none;endFill=0;" edge="1" parent="1" source="YqHe1SWwSHMlwZ-YQh3x-42" target="YqHe1SWwSHMlwZ-YQh3x-118">
          <mxGeometry relative="1" as="geometry" />
        </mxCell>
        <mxCell id="YqHe1SWwSHMlwZ-YQh3x-42" value="&lt;ul style=&quot;font-size: 13px;&quot;&gt;&lt;li style=&quot;font-size: 13px;&quot;&gt;Данные о сделках/поглощениях&lt;/li&gt;&lt;/ul&gt;" style="rounded=1;whiteSpace=wrap;html=1;fontFamily=Helvetica;fontSize=13;fontColor=#000000;labelBackgroundColor=default;align=left;strokeColor=#0000CC;" vertex="1" parent="1">
          <mxGeometry x="727.5" y="153" width="250" height="42" as="geometry" />
        </mxCell>
        <mxCell id="YqHe1SWwSHMlwZ-YQh3x-132" style="edgeStyle=orthogonalEdgeStyle;shape=connector;curved=1;rounded=0;orthogonalLoop=1;jettySize=auto;html=1;entryX=0;entryY=0.5;entryDx=0;entryDy=0;strokeColor=default;align=center;verticalAlign=middle;fontFamily=Helvetica;fontSize=11;fontColor=default;labelBackgroundColor=default;endArrow=none;endFill=0;" edge="1" parent="1" source="YqHe1SWwSHMlwZ-YQh3x-43" target="YqHe1SWwSHMlwZ-YQh3x-117">
          <mxGeometry relative="1" as="geometry" />
        </mxCell>
        <mxCell id="YqHe1SWwSHMlwZ-YQh3x-133" style="edgeStyle=orthogonalEdgeStyle;shape=connector;curved=1;rounded=0;orthogonalLoop=1;jettySize=auto;html=1;entryX=0;entryY=0.5;entryDx=0;entryDy=0;strokeColor=default;align=center;verticalAlign=middle;fontFamily=Helvetica;fontSize=11;fontColor=default;labelBackgroundColor=default;endArrow=none;endFill=0;" edge="1" parent="1" source="YqHe1SWwSHMlwZ-YQh3x-43" target="YqHe1SWwSHMlwZ-YQh3x-114">
          <mxGeometry relative="1" as="geometry" />
        </mxCell>
        <mxCell id="YqHe1SWwSHMlwZ-YQh3x-43" value="&lt;ul style=&quot;font-size: 13px;&quot;&gt;&lt;li style=&quot;font-size: 13px;&quot;&gt;Финансовые данные сотрудников&lt;br style=&quot;font-size: 13px;&quot;&gt;организации&lt;/li&gt;&lt;/ul&gt;" style="rounded=1;whiteSpace=wrap;html=1;fontFamily=Helvetica;fontSize=13;fontColor=#000000;labelBackgroundColor=default;align=left;strokeColor=#0000CC;" vertex="1" parent="1">
          <mxGeometry x="727.5" y="216" width="250" height="60" as="geometry" />
        </mxCell>
        <mxCell id="YqHe1SWwSHMlwZ-YQh3x-134" style="edgeStyle=orthogonalEdgeStyle;shape=connector;curved=1;rounded=0;orthogonalLoop=1;jettySize=auto;html=1;entryX=0;entryY=0.5;entryDx=0;entryDy=0;strokeColor=default;align=center;verticalAlign=middle;fontFamily=Helvetica;fontSize=11;fontColor=default;labelBackgroundColor=default;endArrow=none;endFill=0;" edge="1" parent="1" source="YqHe1SWwSHMlwZ-YQh3x-44" target="YqHe1SWwSHMlwZ-YQh3x-114">
          <mxGeometry relative="1" as="geometry" />
        </mxCell>
        <mxCell id="YqHe1SWwSHMlwZ-YQh3x-135" style="edgeStyle=orthogonalEdgeStyle;shape=connector;curved=1;rounded=0;orthogonalLoop=1;jettySize=auto;html=1;entryX=0;entryY=0.5;entryDx=0;entryDy=0;strokeColor=default;align=center;verticalAlign=middle;fontFamily=Helvetica;fontSize=11;fontColor=default;labelBackgroundColor=default;endArrow=none;endFill=0;" edge="1" parent="1" source="YqHe1SWwSHMlwZ-YQh3x-44" target="YqHe1SWwSHMlwZ-YQh3x-115">
          <mxGeometry relative="1" as="geometry" />
        </mxCell>
        <mxCell id="YqHe1SWwSHMlwZ-YQh3x-44" value="&lt;ul style=&quot;font-size: 13px;&quot;&gt;&lt;li style=&quot;font-size: 13px;&quot;&gt;Финансовые транзакции&lt;/li&gt;&lt;/ul&gt;" style="rounded=1;whiteSpace=wrap;html=1;fontFamily=Helvetica;fontSize=13;fontColor=#000000;labelBackgroundColor=default;align=left;strokeColor=#0000CC;" vertex="1" parent="1">
          <mxGeometry x="728.25" y="291" width="250" height="42" as="geometry" />
        </mxCell>
        <mxCell id="YqHe1SWwSHMlwZ-YQh3x-94" style="edgeStyle=orthogonalEdgeStyle;shape=connector;curved=1;rounded=0;orthogonalLoop=1;jettySize=auto;html=1;entryX=1;entryY=0.5;entryDx=0;entryDy=0;strokeColor=default;align=center;verticalAlign=middle;fontFamily=Helvetica;fontSize=13;fontColor=default;labelBackgroundColor=default;endArrow=none;endFill=0;" edge="1" parent="1" source="YqHe1SWwSHMlwZ-YQh3x-45" target="YqHe1SWwSHMlwZ-YQh3x-77">
          <mxGeometry relative="1" as="geometry" />
        </mxCell>
        <mxCell id="YqHe1SWwSHMlwZ-YQh3x-106" style="edgeStyle=orthogonalEdgeStyle;shape=connector;curved=1;rounded=0;orthogonalLoop=1;jettySize=auto;html=1;entryX=1;entryY=0.5;entryDx=0;entryDy=0;strokeColor=default;align=center;verticalAlign=middle;fontFamily=Helvetica;fontSize=13;fontColor=default;labelBackgroundColor=default;endArrow=none;endFill=0;" edge="1" parent="1" source="YqHe1SWwSHMlwZ-YQh3x-45" target="YqHe1SWwSHMlwZ-YQh3x-104">
          <mxGeometry relative="1" as="geometry" />
        </mxCell>
        <mxCell id="YqHe1SWwSHMlwZ-YQh3x-192" style="edgeStyle=orthogonalEdgeStyle;shape=connector;curved=1;rounded=0;orthogonalLoop=1;jettySize=auto;html=1;entryX=1;entryY=0.5;entryDx=0;entryDy=0;strokeColor=default;align=center;verticalAlign=middle;fontFamily=Helvetica;fontSize=11;fontColor=default;labelBackgroundColor=default;endArrow=none;endFill=0;" edge="1" parent="1" source="YqHe1SWwSHMlwZ-YQh3x-45" target="YqHe1SWwSHMlwZ-YQh3x-86">
          <mxGeometry relative="1" as="geometry" />
        </mxCell>
        <mxCell id="YqHe1SWwSHMlwZ-YQh3x-45" value="&lt;ul style=&quot;font-size: 13px;&quot;&gt;&lt;li style=&quot;font-size: 13px;&quot;&gt;Корпоративная переписка&lt;/li&gt;&lt;/ul&gt;" style="rounded=1;whiteSpace=wrap;html=1;fontFamily=Helvetica;fontSize=13;fontColor=#000000;labelBackgroundColor=default;align=left;strokeColor=#0000CC;" vertex="1" parent="1">
          <mxGeometry x="-241" y="489" width="250" height="42" as="geometry" />
        </mxCell>
        <mxCell id="YqHe1SWwSHMlwZ-YQh3x-136" style="edgeStyle=orthogonalEdgeStyle;shape=connector;curved=1;rounded=0;orthogonalLoop=1;jettySize=auto;html=1;entryX=0;entryY=0.5;entryDx=0;entryDy=0;strokeColor=default;align=center;verticalAlign=middle;fontFamily=Helvetica;fontSize=11;fontColor=default;labelBackgroundColor=default;endArrow=none;endFill=0;" edge="1" parent="1" source="YqHe1SWwSHMlwZ-YQh3x-47" target="YqHe1SWwSHMlwZ-YQh3x-114">
          <mxGeometry relative="1" as="geometry" />
        </mxCell>
        <mxCell id="YqHe1SWwSHMlwZ-YQh3x-137" style="edgeStyle=orthogonalEdgeStyle;shape=connector;curved=1;rounded=0;orthogonalLoop=1;jettySize=auto;html=1;entryX=0;entryY=0.5;entryDx=0;entryDy=0;strokeColor=default;align=center;verticalAlign=middle;fontFamily=Helvetica;fontSize=11;fontColor=default;labelBackgroundColor=default;endArrow=none;endFill=0;" edge="1" parent="1" source="YqHe1SWwSHMlwZ-YQh3x-47" target="YqHe1SWwSHMlwZ-YQh3x-116">
          <mxGeometry relative="1" as="geometry" />
        </mxCell>
        <mxCell id="YqHe1SWwSHMlwZ-YQh3x-47" value="&lt;ul style=&quot;font-size: 13px;&quot;&gt;&lt;li style=&quot;font-size: 13px;&quot;&gt;Остатки на счетах собственников&lt;/li&gt;&lt;/ul&gt;" style="rounded=1;whiteSpace=wrap;html=1;fontFamily=Helvetica;fontSize=13;fontColor=#000000;labelBackgroundColor=default;align=left;strokeColor=#0000CC;" vertex="1" parent="1">
          <mxGeometry x="729.5" y="353" width="250" height="42" as="geometry" />
        </mxCell>
        <mxCell id="YqHe1SWwSHMlwZ-YQh3x-138" style="edgeStyle=orthogonalEdgeStyle;shape=connector;curved=1;rounded=0;orthogonalLoop=1;jettySize=auto;html=1;entryX=0;entryY=0.5;entryDx=0;entryDy=0;strokeColor=default;align=center;verticalAlign=middle;fontFamily=Helvetica;fontSize=11;fontColor=default;labelBackgroundColor=default;endArrow=none;endFill=0;" edge="1" parent="1" source="YqHe1SWwSHMlwZ-YQh3x-48" target="YqHe1SWwSHMlwZ-YQh3x-116">
          <mxGeometry relative="1" as="geometry" />
        </mxCell>
        <mxCell id="YqHe1SWwSHMlwZ-YQh3x-139" style="edgeStyle=orthogonalEdgeStyle;shape=connector;curved=1;rounded=0;orthogonalLoop=1;jettySize=auto;html=1;entryX=0;entryY=0.5;entryDx=0;entryDy=0;strokeColor=default;align=center;verticalAlign=middle;fontFamily=Helvetica;fontSize=11;fontColor=default;labelBackgroundColor=default;endArrow=none;endFill=0;" edge="1" parent="1" source="YqHe1SWwSHMlwZ-YQh3x-48" target="YqHe1SWwSHMlwZ-YQh3x-118">
          <mxGeometry relative="1" as="geometry" />
        </mxCell>
        <mxCell id="YqHe1SWwSHMlwZ-YQh3x-48" value="&lt;ul style=&quot;font-size: 13px;&quot;&gt;&lt;li style=&quot;font-size: 13px;&quot;&gt;Данные полученные из госорганов&lt;/li&gt;&lt;/ul&gt;" style="rounded=1;whiteSpace=wrap;html=1;fontFamily=Helvetica;fontSize=13;fontColor=#000000;labelBackgroundColor=default;align=left;strokeColor=#0000CC;" vertex="1" parent="1">
          <mxGeometry x="728.5" y="412" width="250" height="60" as="geometry" />
        </mxCell>
        <mxCell id="YqHe1SWwSHMlwZ-YQh3x-146" style="edgeStyle=orthogonalEdgeStyle;shape=connector;curved=1;rounded=0;orthogonalLoop=1;jettySize=auto;html=1;entryX=0;entryY=0.5;entryDx=0;entryDy=0;strokeColor=default;align=center;verticalAlign=middle;fontFamily=Helvetica;fontSize=11;fontColor=default;labelBackgroundColor=default;endArrow=none;endFill=0;" edge="1" parent="1" source="YqHe1SWwSHMlwZ-YQh3x-58" target="YqHe1SWwSHMlwZ-YQh3x-145">
          <mxGeometry relative="1" as="geometry" />
        </mxCell>
        <mxCell id="YqHe1SWwSHMlwZ-YQh3x-147" style="edgeStyle=orthogonalEdgeStyle;shape=connector;curved=1;rounded=0;orthogonalLoop=1;jettySize=auto;html=1;entryX=0;entryY=0.5;entryDx=0;entryDy=0;strokeColor=default;align=center;verticalAlign=middle;fontFamily=Helvetica;fontSize=11;fontColor=default;labelBackgroundColor=default;endArrow=none;endFill=0;" edge="1" parent="1" source="YqHe1SWwSHMlwZ-YQh3x-58" target="YqHe1SWwSHMlwZ-YQh3x-144">
          <mxGeometry relative="1" as="geometry" />
        </mxCell>
        <mxCell id="YqHe1SWwSHMlwZ-YQh3x-58" value="&lt;ul style=&quot;font-size: 13px;&quot;&gt;&lt;li style=&quot;font-size: 13px;&quot;&gt;Номера счетов клиентов / собственников&lt;/li&gt;&lt;/ul&gt;" style="rounded=1;whiteSpace=wrap;html=1;fontFamily=Helvetica;fontSize=13;fontColor=#000000;labelBackgroundColor=default;align=left;strokeColor=#0000CC;" vertex="1" parent="1">
          <mxGeometry x="736.75" y="-380" width="250" height="60" as="geometry" />
        </mxCell>
        <mxCell id="YqHe1SWwSHMlwZ-YQh3x-148" style="edgeStyle=orthogonalEdgeStyle;shape=connector;curved=1;rounded=0;orthogonalLoop=1;jettySize=auto;html=1;entryX=0;entryY=0.5;entryDx=0;entryDy=0;strokeColor=default;align=center;verticalAlign=middle;fontFamily=Helvetica;fontSize=11;fontColor=default;labelBackgroundColor=default;endArrow=none;endFill=0;" edge="1" parent="1" source="YqHe1SWwSHMlwZ-YQh3x-60" target="YqHe1SWwSHMlwZ-YQh3x-143">
          <mxGeometry relative="1" as="geometry" />
        </mxCell>
        <mxCell id="YqHe1SWwSHMlwZ-YQh3x-151" style="edgeStyle=orthogonalEdgeStyle;shape=connector;curved=1;rounded=0;orthogonalLoop=1;jettySize=auto;html=1;strokeColor=default;align=center;verticalAlign=middle;fontFamily=Helvetica;fontSize=11;fontColor=default;labelBackgroundColor=default;endArrow=none;endFill=0;" edge="1" parent="1" source="YqHe1SWwSHMlwZ-YQh3x-60" target="YqHe1SWwSHMlwZ-YQh3x-144">
          <mxGeometry relative="1" as="geometry" />
        </mxCell>
        <mxCell id="YqHe1SWwSHMlwZ-YQh3x-60" value="&lt;ul style=&quot;font-size: 13px;&quot;&gt;&lt;li style=&quot;font-size: 13px;&quot;&gt;Пин-коды и CVC&lt;/li&gt;&lt;/ul&gt;" style="rounded=1;whiteSpace=wrap;html=1;fontFamily=Helvetica;fontSize=13;fontColor=#000000;labelBackgroundColor=default;align=left;strokeColor=#0000CC;" vertex="1" parent="1">
          <mxGeometry x="736.75" y="-306" width="250" height="42" as="geometry" />
        </mxCell>
        <mxCell id="YqHe1SWwSHMlwZ-YQh3x-140" style="edgeStyle=orthogonalEdgeStyle;shape=connector;curved=1;rounded=0;orthogonalLoop=1;jettySize=auto;html=1;entryX=0;entryY=0.5;entryDx=0;entryDy=0;strokeColor=default;align=center;verticalAlign=middle;fontFamily=Helvetica;fontSize=11;fontColor=default;labelBackgroundColor=default;endArrow=none;endFill=0;" edge="1" parent="1" source="YqHe1SWwSHMlwZ-YQh3x-61" target="YqHe1SWwSHMlwZ-YQh3x-114">
          <mxGeometry relative="1" as="geometry" />
        </mxCell>
        <mxCell id="YqHe1SWwSHMlwZ-YQh3x-141" style="edgeStyle=orthogonalEdgeStyle;shape=connector;curved=1;rounded=0;orthogonalLoop=1;jettySize=auto;html=1;entryX=0;entryY=0.5;entryDx=0;entryDy=0;strokeColor=default;align=center;verticalAlign=middle;fontFamily=Helvetica;fontSize=11;fontColor=default;labelBackgroundColor=default;endArrow=none;endFill=0;" edge="1" parent="1" source="YqHe1SWwSHMlwZ-YQh3x-61" target="YqHe1SWwSHMlwZ-YQh3x-118">
          <mxGeometry relative="1" as="geometry" />
        </mxCell>
        <mxCell id="YqHe1SWwSHMlwZ-YQh3x-142" style="edgeStyle=orthogonalEdgeStyle;shape=connector;curved=1;rounded=0;orthogonalLoop=1;jettySize=auto;html=1;entryX=0;entryY=0.5;entryDx=0;entryDy=0;strokeColor=default;align=center;verticalAlign=middle;fontFamily=Helvetica;fontSize=11;fontColor=default;labelBackgroundColor=default;endArrow=none;endFill=0;" edge="1" parent="1" source="YqHe1SWwSHMlwZ-YQh3x-61" target="YqHe1SWwSHMlwZ-YQh3x-116">
          <mxGeometry relative="1" as="geometry" />
        </mxCell>
        <mxCell id="YqHe1SWwSHMlwZ-YQh3x-61" value="&lt;ul style=&quot;font-size: 13px;&quot;&gt;&lt;li style=&quot;font-size: 13px;&quot;&gt;Коммерческая тайна&lt;/li&gt;&lt;/ul&gt;" style="rounded=1;whiteSpace=wrap;html=1;fontFamily=Helvetica;fontSize=13;fontColor=#000000;labelBackgroundColor=default;align=left;strokeColor=#0000CC;" vertex="1" parent="1">
          <mxGeometry x="730.5" y="489" width="250" height="42" as="geometry" />
        </mxCell>
        <mxCell id="YqHe1SWwSHMlwZ-YQh3x-149" style="edgeStyle=orthogonalEdgeStyle;shape=connector;curved=1;rounded=0;orthogonalLoop=1;jettySize=auto;html=1;strokeColor=default;align=center;verticalAlign=middle;fontFamily=Helvetica;fontSize=11;fontColor=default;labelBackgroundColor=default;endArrow=none;endFill=0;" edge="1" parent="1" source="YqHe1SWwSHMlwZ-YQh3x-63" target="YqHe1SWwSHMlwZ-YQh3x-143">
          <mxGeometry relative="1" as="geometry" />
        </mxCell>
        <mxCell id="YqHe1SWwSHMlwZ-YQh3x-150" style="edgeStyle=orthogonalEdgeStyle;shape=connector;curved=1;rounded=0;orthogonalLoop=1;jettySize=auto;html=1;entryX=0;entryY=0.5;entryDx=0;entryDy=0;strokeColor=default;align=center;verticalAlign=middle;fontFamily=Helvetica;fontSize=11;fontColor=default;labelBackgroundColor=default;endArrow=none;endFill=0;" edge="1" parent="1" source="YqHe1SWwSHMlwZ-YQh3x-63" target="YqHe1SWwSHMlwZ-YQh3x-145">
          <mxGeometry relative="1" as="geometry" />
        </mxCell>
        <mxCell id="YqHe1SWwSHMlwZ-YQh3x-63" value="&lt;ul style=&quot;font-size: 13px;&quot;&gt;&lt;li style=&quot;font-size: 13px;&quot;&gt;Секретные данные госорганов&lt;/li&gt;&lt;/ul&gt;" style="rounded=1;whiteSpace=wrap;html=1;fontFamily=Helvetica;fontSize=13;fontColor=#000000;labelBackgroundColor=default;align=left;strokeColor=#0000CC;" vertex="1" parent="1">
          <mxGeometry x="736.75" y="-248" width="250" height="42" as="geometry" />
        </mxCell>
        <mxCell id="YqHe1SWwSHMlwZ-YQh3x-175" style="edgeStyle=orthogonalEdgeStyle;shape=connector;curved=1;rounded=0;orthogonalLoop=1;jettySize=auto;html=1;entryX=1;entryY=0.5;entryDx=0;entryDy=0;strokeColor=default;align=center;verticalAlign=middle;fontFamily=Helvetica;fontSize=11;fontColor=default;labelBackgroundColor=default;endArrow=none;endFill=0;" edge="1" parent="1" source="YqHe1SWwSHMlwZ-YQh3x-77" target="YqHe1SWwSHMlwZ-YQh3x-171">
          <mxGeometry relative="1" as="geometry" />
        </mxCell>
        <mxCell id="YqHe1SWwSHMlwZ-YQh3x-205" style="edgeStyle=orthogonalEdgeStyle;shape=connector;curved=1;rounded=0;orthogonalLoop=1;jettySize=auto;html=1;entryX=1;entryY=0.5;entryDx=0;entryDy=0;strokeColor=default;align=center;verticalAlign=middle;fontFamily=Helvetica;fontSize=11;fontColor=default;labelBackgroundColor=default;endArrow=none;endFill=0;" edge="1" parent="1" source="YqHe1SWwSHMlwZ-YQh3x-77" target="YqHe1SWwSHMlwZ-YQh3x-185">
          <mxGeometry relative="1" as="geometry" />
        </mxCell>
        <mxCell id="YqHe1SWwSHMlwZ-YQh3x-77" value="Утечка данных" style="rounded=1;whiteSpace=wrap;html=1;fontFamily=Helvetica;fontSize=15;labelBackgroundColor=#F8CECC;strokeColor=#b85450;fillColor=#f8cecc;" vertex="1" parent="1">
          <mxGeometry x="-545" y="53" width="160" height="50" as="geometry" />
        </mxCell>
        <mxCell id="YqHe1SWwSHMlwZ-YQh3x-179" style="edgeStyle=orthogonalEdgeStyle;shape=connector;curved=1;rounded=0;orthogonalLoop=1;jettySize=auto;html=1;entryX=1;entryY=0.5;entryDx=0;entryDy=0;strokeColor=default;align=center;verticalAlign=middle;fontFamily=Helvetica;fontSize=11;fontColor=default;labelBackgroundColor=default;endArrow=none;endFill=0;" edge="1" parent="1" source="YqHe1SWwSHMlwZ-YQh3x-78" target="YqHe1SWwSHMlwZ-YQh3x-178">
          <mxGeometry relative="1" as="geometry" />
        </mxCell>
        <mxCell id="YqHe1SWwSHMlwZ-YQh3x-78" value="Некачественные данные" style="rounded=1;whiteSpace=wrap;html=1;fontFamily=Helvetica;fontSize=15;labelBackgroundColor=#D5E8D4;strokeColor=#82B366;fillColor=#D5E8D4;" vertex="1" parent="1">
          <mxGeometry x="-549" y="-170" width="160" height="50" as="geometry" />
        </mxCell>
        <mxCell id="YqHe1SWwSHMlwZ-YQh3x-184" style="edgeStyle=orthogonalEdgeStyle;shape=connector;curved=1;rounded=0;orthogonalLoop=1;jettySize=auto;html=1;entryX=1;entryY=0.5;entryDx=0;entryDy=0;strokeColor=default;align=center;verticalAlign=middle;fontFamily=Helvetica;fontSize=11;fontColor=default;labelBackgroundColor=default;endArrow=none;endFill=0;" edge="1" parent="1" source="YqHe1SWwSHMlwZ-YQh3x-86" target="YqHe1SWwSHMlwZ-YQh3x-183">
          <mxGeometry relative="1" as="geometry" />
        </mxCell>
        <mxCell id="YqHe1SWwSHMlwZ-YQh3x-86" value="Потеря данных" style="rounded=1;whiteSpace=wrap;html=1;fontFamily=Helvetica;fontSize=15;labelBackgroundColor=#FFF2CC;strokeColor=#d6b656;fillColor=#fff2cc;" vertex="1" parent="1">
          <mxGeometry x="-540" y="208" width="160" height="50" as="geometry" />
        </mxCell>
        <mxCell id="YqHe1SWwSHMlwZ-YQh3x-187" style="edgeStyle=orthogonalEdgeStyle;shape=connector;curved=1;rounded=0;orthogonalLoop=1;jettySize=auto;html=1;entryX=1;entryY=0.5;entryDx=0;entryDy=0;strokeColor=default;align=center;verticalAlign=middle;fontFamily=Helvetica;fontSize=11;fontColor=default;labelBackgroundColor=default;endArrow=none;endFill=0;" edge="1" parent="1" source="YqHe1SWwSHMlwZ-YQh3x-104" target="YqHe1SWwSHMlwZ-YQh3x-185">
          <mxGeometry relative="1" as="geometry" />
        </mxCell>
        <mxCell id="YqHe1SWwSHMlwZ-YQh3x-104" value="Искажение данных" style="rounded=1;whiteSpace=wrap;html=1;fontFamily=Helvetica;fontSize=15;labelBackgroundColor=#F8CECC;strokeColor=#b85450;fillColor=#f8cecc;" vertex="1" parent="1">
          <mxGeometry x="-545" y="362" width="160" height="50" as="geometry" />
        </mxCell>
        <mxCell id="YqHe1SWwSHMlwZ-YQh3x-110" style="edgeStyle=orthogonalEdgeStyle;shape=connector;curved=1;rounded=0;orthogonalLoop=1;jettySize=auto;html=1;entryX=1;entryY=0.5;entryDx=0;entryDy=0;strokeColor=#0000CC;align=center;verticalAlign=middle;fontFamily=Helvetica;fontSize=20;fontColor=default;labelBackgroundColor=default;endArrow=none;endFill=0;textShadow=1;" edge="1" parent="1" source="YqHe1SWwSHMlwZ-YQh3x-109" target="vDTBKTOLJICSkcZuTxSC-27">
          <mxGeometry relative="1" as="geometry" />
        </mxCell>
        <mxCell id="YqHe1SWwSHMlwZ-YQh3x-111" style="edgeStyle=orthogonalEdgeStyle;shape=connector;rounded=0;orthogonalLoop=1;jettySize=auto;html=1;entryX=0;entryY=0.5;entryDx=0;entryDy=0;strokeColor=#0000CC;align=center;verticalAlign=middle;fontFamily=Helvetica;fontSize=20;fontColor=default;labelBackgroundColor=default;endArrow=none;endFill=0;curved=1;textShadow=1;" edge="1" parent="1" source="YqHe1SWwSHMlwZ-YQh3x-109" target="vDTBKTOLJICSkcZuTxSC-31">
          <mxGeometry relative="1" as="geometry" />
        </mxCell>
        <mxCell id="YqHe1SWwSHMlwZ-YQh3x-112" style="edgeStyle=orthogonalEdgeStyle;shape=connector;curved=1;rounded=0;orthogonalLoop=1;jettySize=auto;html=1;entryX=0;entryY=0.5;entryDx=0;entryDy=0;strokeColor=#0000CC;align=center;verticalAlign=middle;fontFamily=Helvetica;fontSize=20;fontColor=default;labelBackgroundColor=default;endArrow=none;endFill=0;textShadow=1;" edge="1" parent="1" source="YqHe1SWwSHMlwZ-YQh3x-109" target="vDTBKTOLJICSkcZuTxSC-29">
          <mxGeometry relative="1" as="geometry" />
        </mxCell>
        <mxCell id="YqHe1SWwSHMlwZ-YQh3x-113" style="edgeStyle=orthogonalEdgeStyle;shape=connector;curved=1;rounded=0;orthogonalLoop=1;jettySize=auto;html=1;entryX=1;entryY=0.5;entryDx=0;entryDy=0;strokeColor=#0000CC;align=center;verticalAlign=middle;fontFamily=Helvetica;fontSize=20;fontColor=default;labelBackgroundColor=default;endArrow=none;endFill=0;textShadow=1;" edge="1" parent="1" source="YqHe1SWwSHMlwZ-YQh3x-109" target="vDTBKTOLJICSkcZuTxSC-33">
          <mxGeometry relative="1" as="geometry" />
        </mxCell>
        <mxCell id="YqHe1SWwSHMlwZ-YQh3x-109" value="Безопастность&lt;br style=&quot;font-size: 20px;&quot;&gt;данных" style="rounded=1;whiteSpace=wrap;html=1;fontFamily=Helvetica;fontSize=20;fontColor=default;labelBackgroundColor=default;textShadow=0;strokeColor=#0000CC;" vertex="1" parent="1">
          <mxGeometry x="237" y="-59" width="172" height="104" as="geometry" />
        </mxCell>
        <mxCell id="YqHe1SWwSHMlwZ-YQh3x-181" style="edgeStyle=orthogonalEdgeStyle;shape=connector;curved=1;rounded=0;orthogonalLoop=1;jettySize=auto;html=1;entryX=0;entryY=0.75;entryDx=0;entryDy=0;strokeColor=default;align=center;verticalAlign=middle;fontFamily=Helvetica;fontSize=11;fontColor=default;labelBackgroundColor=default;endArrow=none;endFill=0;" edge="1" parent="1" source="YqHe1SWwSHMlwZ-YQh3x-114" target="YqHe1SWwSHMlwZ-YQh3x-180">
          <mxGeometry relative="1" as="geometry" />
        </mxCell>
        <mxCell id="YqHe1SWwSHMlwZ-YQh3x-114" value="Утечка данных" style="rounded=1;whiteSpace=wrap;html=1;fontFamily=Helvetica;fontSize=15;labelBackgroundColor=#F8CECC;strokeColor=#b85450;fillColor=#f8cecc;" vertex="1" parent="1">
          <mxGeometry x="1120" y="-41" width="160" height="50" as="geometry" />
        </mxCell>
        <mxCell id="YqHe1SWwSHMlwZ-YQh3x-196" style="edgeStyle=orthogonalEdgeStyle;shape=connector;curved=1;rounded=0;orthogonalLoop=1;jettySize=auto;html=1;entryX=0;entryY=0.5;entryDx=0;entryDy=0;strokeColor=default;align=center;verticalAlign=middle;fontFamily=Helvetica;fontSize=11;fontColor=default;labelBackgroundColor=default;endArrow=none;endFill=0;" edge="1" parent="1" source="YqHe1SWwSHMlwZ-YQh3x-115" target="YqHe1SWwSHMlwZ-YQh3x-193">
          <mxGeometry relative="1" as="geometry" />
        </mxCell>
        <mxCell id="YqHe1SWwSHMlwZ-YQh3x-115" value="Потеря данных" style="rounded=1;whiteSpace=wrap;html=1;fontFamily=Helvetica;fontSize=15;labelBackgroundColor=#FFF2CC;strokeColor=#d6b656;fillColor=#fff2cc;" vertex="1" parent="1">
          <mxGeometry x="1117" y="82" width="160" height="50" as="geometry" />
        </mxCell>
        <mxCell id="YqHe1SWwSHMlwZ-YQh3x-199" style="edgeStyle=orthogonalEdgeStyle;shape=connector;curved=1;rounded=0;orthogonalLoop=1;jettySize=auto;html=1;entryX=0;entryY=0.5;entryDx=0;entryDy=0;strokeColor=default;align=center;verticalAlign=middle;fontFamily=Helvetica;fontSize=11;fontColor=default;labelBackgroundColor=default;endArrow=none;endFill=0;" edge="1" parent="1" source="YqHe1SWwSHMlwZ-YQh3x-116" target="YqHe1SWwSHMlwZ-YQh3x-198">
          <mxGeometry relative="1" as="geometry" />
        </mxCell>
        <mxCell id="YqHe1SWwSHMlwZ-YQh3x-204" style="edgeStyle=orthogonalEdgeStyle;shape=connector;curved=1;rounded=0;orthogonalLoop=1;jettySize=auto;html=1;entryX=0;entryY=0.5;entryDx=0;entryDy=0;strokeColor=default;align=center;verticalAlign=middle;fontFamily=Helvetica;fontSize=11;fontColor=default;labelBackgroundColor=default;endArrow=none;endFill=0;" edge="1" parent="1" source="YqHe1SWwSHMlwZ-YQh3x-116" target="YqHe1SWwSHMlwZ-YQh3x-201">
          <mxGeometry relative="1" as="geometry" />
        </mxCell>
        <mxCell id="YqHe1SWwSHMlwZ-YQh3x-116" value="Искажение данных" style="rounded=1;whiteSpace=wrap;html=1;fontFamily=Helvetica;fontSize=15;labelBackgroundColor=#F8CECC;strokeColor=#b85450;fillColor=#f8cecc;" vertex="1" parent="1">
          <mxGeometry x="1117" y="205" width="160" height="50" as="geometry" />
        </mxCell>
        <mxCell id="YqHe1SWwSHMlwZ-YQh3x-200" style="edgeStyle=orthogonalEdgeStyle;shape=connector;curved=1;rounded=0;orthogonalLoop=1;jettySize=auto;html=1;entryX=0;entryY=0.5;entryDx=0;entryDy=0;strokeColor=default;align=center;verticalAlign=middle;fontFamily=Helvetica;fontSize=11;fontColor=default;labelBackgroundColor=default;endArrow=none;endFill=0;" edge="1" parent="1" source="YqHe1SWwSHMlwZ-YQh3x-117" target="YqHe1SWwSHMlwZ-YQh3x-198">
          <mxGeometry relative="1" as="geometry" />
        </mxCell>
        <mxCell id="YqHe1SWwSHMlwZ-YQh3x-117" value="Некачественные данные" style="rounded=1;whiteSpace=wrap;html=1;fontFamily=Helvetica;fontSize=15;labelBackgroundColor=#F8CECC;strokeColor=#b85450;fillColor=#F8CECC;" vertex="1" parent="1">
          <mxGeometry x="1117" y="333" width="160" height="50" as="geometry" />
        </mxCell>
        <mxCell id="YqHe1SWwSHMlwZ-YQh3x-202" style="edgeStyle=orthogonalEdgeStyle;shape=connector;curved=1;rounded=0;orthogonalLoop=1;jettySize=auto;html=1;entryX=0;entryY=0.5;entryDx=0;entryDy=0;strokeColor=default;align=center;verticalAlign=middle;fontFamily=Helvetica;fontSize=11;fontColor=default;labelBackgroundColor=default;endArrow=none;endFill=0;" edge="1" parent="1" source="YqHe1SWwSHMlwZ-YQh3x-118" target="YqHe1SWwSHMlwZ-YQh3x-201">
          <mxGeometry relative="1" as="geometry" />
        </mxCell>
        <mxCell id="YqHe1SWwSHMlwZ-YQh3x-118" value="Обесценивание данных" style="rounded=1;whiteSpace=wrap;html=1;fontFamily=Helvetica;fontSize=15;labelBackgroundColor=#FFF2CC;strokeColor=#d6b656;fillColor=#fff2cc;" vertex="1" parent="1">
          <mxGeometry x="1117" y="461" width="160" height="50" as="geometry" />
        </mxCell>
        <mxCell id="YqHe1SWwSHMlwZ-YQh3x-143" value="Обесценивание данных" style="rounded=1;whiteSpace=wrap;html=1;fontFamily=Helvetica;fontSize=15;labelBackgroundColor=#FFF2CC;strokeColor=#d6b656;fillColor=#FFF2CC;" vertex="1" parent="1">
          <mxGeometry x="1120" y="-222" width="160" height="50" as="geometry" />
        </mxCell>
        <mxCell id="YqHe1SWwSHMlwZ-YQh3x-194" style="edgeStyle=orthogonalEdgeStyle;shape=connector;curved=1;rounded=0;orthogonalLoop=1;jettySize=auto;html=1;entryX=0;entryY=0.5;entryDx=0;entryDy=0;strokeColor=default;align=center;verticalAlign=middle;fontFamily=Helvetica;fontSize=11;fontColor=default;labelBackgroundColor=default;endArrow=none;endFill=0;" edge="1" parent="1" source="YqHe1SWwSHMlwZ-YQh3x-144" target="YqHe1SWwSHMlwZ-YQh3x-193">
          <mxGeometry relative="1" as="geometry" />
        </mxCell>
        <mxCell id="YqHe1SWwSHMlwZ-YQh3x-144" value="Потеря данных" style="rounded=1;whiteSpace=wrap;html=1;fontFamily=Helvetica;fontSize=15;labelBackgroundColor=#F8CECC;strokeColor=#b85450;fillColor=#f8cecc;" vertex="1" parent="1">
          <mxGeometry x="1117" y="-327" width="160" height="50" as="geometry" />
        </mxCell>
        <mxCell id="YqHe1SWwSHMlwZ-YQh3x-182" style="edgeStyle=orthogonalEdgeStyle;shape=connector;curved=1;rounded=0;orthogonalLoop=1;jettySize=auto;html=1;entryX=0;entryY=0.25;entryDx=0;entryDy=0;strokeColor=default;align=center;verticalAlign=middle;fontFamily=Helvetica;fontSize=11;fontColor=default;labelBackgroundColor=default;endArrow=none;endFill=0;" edge="1" parent="1" source="YqHe1SWwSHMlwZ-YQh3x-145" target="YqHe1SWwSHMlwZ-YQh3x-180">
          <mxGeometry relative="1" as="geometry" />
        </mxCell>
        <mxCell id="YqHe1SWwSHMlwZ-YQh3x-145" value="Утечка данных" style="rounded=1;whiteSpace=wrap;html=1;fontFamily=Helvetica;fontSize=15;labelBackgroundColor=#F8CECC;strokeColor=#b85450;fillColor=#f8cecc;" vertex="1" parent="1">
          <mxGeometry x="1113" y="-432" width="160" height="50" as="geometry" />
        </mxCell>
        <mxCell id="YqHe1SWwSHMlwZ-YQh3x-171" value="&lt;div style=&quot;font-size: 13px;&quot;&gt;В рамках организации борьба с учетками данных построена крайне плохо. Отсутсвуют какие-либо средства предотвращения утечек, средства анализа трафика пользователей, средства анализа активности пользователей. Ролевая модель либо отсуствует как таковая, либо не работает должным образом. Контроль данных на предмет их конфиденциальности отсуствует.&amp;nbsp;&lt;br style=&quot;font-size: 13px;&quot;&gt;Механизмы обмена данными между подраздлениями внутри компании, а также с конртагентами никак не регламенированы.&amp;nbsp;&lt;br style=&quot;font-size: 13px;&quot;&gt;Сотрудники имеют доступ к данным, которые не нужны им в процессе ежедневной работы. Всё это и многое другое предоставляет множество возможностей для утечек данных как изнутри компании, так и возможностей для атак извне.&lt;/div&gt;" style="rounded=1;whiteSpace=wrap;html=1;align=left;verticalAlign=top;fillColor=none;strokeColor=#BFBFBF;fontSize=13;spacingTop=2;spacingLeft=13;spacingRight=10;arcSize=5;" vertex="1" parent="1">
          <mxGeometry x="-1286" y="-72" width="601" height="191" as="geometry" />
        </mxCell>
        <mxCell id="YqHe1SWwSHMlwZ-YQh3x-178" value="&lt;div style=&quot;font-size: 13px;&quot;&gt;&lt;span style=&quot;font-size: 12px;&quot;&gt;Публичная информация общедоступна, риски связанные с ней могут повлиять только на определенное недовольство пользователей, в случае недостоверности или не актупльности данных, предоставляемых в публичном поле.&amp;nbsp;&lt;/span&gt;&lt;br&gt;&lt;/div&gt;" style="rounded=1;whiteSpace=wrap;html=1;align=left;verticalAlign=top;fillColor=none;strokeColor=#BFBFBF;fontSize=13;spacingTop=2;spacingLeft=13;spacingRight=10;arcSize=5;" vertex="1" parent="1">
          <mxGeometry x="-1286" y="-286" width="602" height="104" as="geometry" />
        </mxCell>
        <mxCell id="YqHe1SWwSHMlwZ-YQh3x-180" value="&lt;div style=&quot;font-size: 13px;&quot;&gt;В рамках организации борьба с учетками данных построена крайне плохо. Отсутсвуют какие-либо средства предотвращения утечек, средства анализа трафика пользователей, средства анализа активности пользователей. Ролевая модель либо отсуствует как таковая, либо не работает должным образом. Контроль данных на предмет их конфиденциальности отсуствует.&amp;nbsp;&lt;br style=&quot;font-size: 13px;&quot;&gt;Механизмы обмена данными между подраздлениями внутри компании, а также с конртагентами никак не регламенированы.&amp;nbsp;&lt;br style=&quot;font-size: 13px;&quot;&gt;Сотрудники имеют доступ к данным, которые не нужны им в процессе ежедневной работы. Всё это и многое другое предоставляет множество возможностей для утечек данных как изнутри компании, так и возможностей для атак извне. В том числе это касается персональных данных пользователей, доступ к которым должен быть строго ограничен, чего в текущей реализации системы нет. Даже без внешних воздействий, часто данные одних пользователей отображатся другим пользователям.&amp;nbsp;&lt;br&gt;Считаю риск утечки данных крайне вероятным, причем для этого не надо прилагать практически никаких усилий.&lt;br&gt;&lt;br&gt;&lt;/div&gt;" style="rounded=1;whiteSpace=wrap;html=1;align=left;verticalAlign=top;fillColor=none;strokeColor=#BFBFBF;fontSize=13;spacingTop=2;spacingLeft=13;spacingRight=10;arcSize=5;" vertex="1" parent="1">
          <mxGeometry x="1544" y="-377" width="601" height="260" as="geometry" />
        </mxCell>
        <mxCell id="YqHe1SWwSHMlwZ-YQh3x-183" value="&lt;div style=&quot;font-size: 13px;&quot;&gt;С точки зрения потери данных, в комании есть резервное копирование данных, что позволяет в случае инцидента восстановить данные из бэкапа. Но в данном случае речь идет только о бэкапировании баз данных.&amp;nbsp;&lt;br&gt;Обычно понятие данные не ограничивается только данными БД, это могут документы, схемы, изображения, бинарные данные и достаточно большое количество разновидностей. Все эти данные также могут быть критичны для полноценного функционирования компании и их необходимо своевременно и качественно реплицировать. К сожалению этого нет, поэтому это не позволяет снизить риск утери данных до незначительного.&lt;/div&gt;" style="rounded=1;whiteSpace=wrap;html=1;align=left;verticalAlign=top;fillColor=none;strokeColor=#BFBFBF;fontSize=13;spacingTop=2;spacingLeft=13;spacingRight=10;arcSize=5;" vertex="1" parent="1">
          <mxGeometry x="-1286" y="163" width="601" height="152" as="geometry" />
        </mxCell>
        <mxCell id="YqHe1SWwSHMlwZ-YQh3x-185" value="&lt;div style=&quot;font-size: 13px;&quot;&gt;Отсутствие внятной RBAC или ABAC модели доступа и возможность как получить так и неауторизованно отредактировать данные ставит под угрозу компрометацию этих данных и их корректность.&amp;nbsp;&lt;br&gt;Отсутствие внетренного контроля и инструментов анализа активности пользователей также дает возможность как предпринять атаку на данные, так и скрыть следы искажения. Это практически не дает возможностей для последующего анализа причин и источников искажения данных. Искаженные данные могут приводить к принятию неверных решений как сотрудниками, так и автоматизированными системами. В совокупности это может привести к сбоям в работе и последующим простоям&lt;/div&gt;" style="rounded=1;whiteSpace=wrap;html=1;align=left;verticalAlign=top;fillColor=none;strokeColor=#BFBFBF;fontSize=13;spacingTop=2;spacingLeft=13;spacingRight=10;arcSize=5;" vertex="1" parent="1">
          <mxGeometry x="-1288" y="366" width="601" height="152" as="geometry" />
        </mxCell>
        <mxCell id="YqHe1SWwSHMlwZ-YQh3x-193" value="&lt;div style=&quot;font-size: 13px;&quot;&gt;С точки зрения потери данных, в комании есть резервное копирование данных, что позволяет в случае инцидента восстановить данные из бэкапа. Но в данном случае речь идет только о бэкапировании баз данных.&amp;nbsp;&lt;br&gt;Обычно понятие данные не ограничивается только данными БД, это могут документы, схемы, изображения, бинарные данные и достаточно большое количество разновидностей. Все эти данные также могут быть критичны для полноценного функционирования компании и их необходимо своевременно и качественно реплицировать. К сожалению этого нет, поэтому это не позволяет снизить риск утери данных до незначительного.&lt;/div&gt;" style="rounded=1;whiteSpace=wrap;html=1;align=left;verticalAlign=top;fillColor=none;strokeColor=#BFBFBF;fontSize=13;spacingTop=2;spacingLeft=13;spacingRight=10;arcSize=5;" vertex="1" parent="1">
          <mxGeometry x="1544" y="-43" width="601" height="152" as="geometry" />
        </mxCell>
        <mxCell id="YqHe1SWwSHMlwZ-YQh3x-198" value="&lt;div style=&quot;font-size: 13px;&quot;&gt;Отсутствие внятной RBAC или ABAC модели доступа и возможность как получить так и неауторизованно отредактировать данные ставит под угрозу компрометацию этих данных и их корректность.&amp;nbsp;&lt;br&gt;Отсутствие внетренного контроля и инструментов анализа активности пользователей также дает возможность как предпринять атаку на данные, так и скрыть следы искажения. Это практически не дает возможностей для последующего анализа причин и источников искажения данных. Искаженные данные могут приводить к принятию неверных решений как сотрудниками, так и автоматизированными системами. В совокупности это может привести к сбоям в работе и последующим простоям&lt;/div&gt;" style="rounded=1;whiteSpace=wrap;html=1;align=left;verticalAlign=top;fillColor=none;strokeColor=#BFBFBF;fontSize=13;spacingTop=2;spacingLeft=13;spacingRight=10;arcSize=5;" vertex="1" parent="1">
          <mxGeometry x="1544" y="183" width="601" height="152" as="geometry" />
        </mxCell>
        <mxCell id="YqHe1SWwSHMlwZ-YQh3x-201" value="&lt;div style=&quot;font-size: 13px;&quot;&gt;Утечки, умышленное или неумышленное искажение данных может привести к ситуация, когда данные могут быть раскрыты раньше времени. Например при проведении сделок о покупке или поглощении, или каких-то R&amp;amp;D наработках могут стать доступны конкурентам и потерять свою ценность для компании. Все это возможно по причинам безконтрольного доступа к данным и обмена ими.&lt;/div&gt;" style="rounded=1;whiteSpace=wrap;html=1;align=left;verticalAlign=top;fillColor=none;strokeColor=#BFBFBF;fontSize=13;spacingTop=2;spacingLeft=13;spacingRight=10;arcSize=5;" vertex="1" parent="1">
          <mxGeometry x="1544" y="409" width="601" height="118" as="geometry" />
        </mxCell>
      </root>
    </mxGraphModel>
  </diagram>
</mxfile>
